<mxfile host="app.diagrams.net" agent="Mozilla/5.0 (Windows NT 10.0; Win64; x64) AppleWebKit/537.36 (KHTML, like Gecko) Chrome/133.0.0.0 Safari/537.36" version="26.1.0">
  <diagram name="페이지-1" id="qzyhOUPyN61X00X48giR">
    <mxGraphModel dx="819" dy="416" grid="1" gridSize="10" guides="1" tooltips="1" connect="1" arrows="1" fold="1" page="1" pageScale="1" pageWidth="827" pageHeight="1169" math="0" shadow="0">
      <root>
        <mxCell id="0" />
        <mxCell id="1" parent="0" />
        <mxCell id="0mUN5aCMRDgJ7s6GESbr-17" value="" style="rounded=0;whiteSpace=wrap;html=1;" parent="1" vertex="1">
          <mxGeometry x="180" y="110" width="320" height="220" as="geometry" />
        </mxCell>
        <mxCell id="0mUN5aCMRDgJ7s6GESbr-1" value="" style="rounded=0;whiteSpace=wrap;html=1;" parent="1" vertex="1">
          <mxGeometry x="360" y="150" width="120" height="160" as="geometry" />
        </mxCell>
        <mxCell id="0mUN5aCMRDgJ7s6GESbr-2" value="main thread" style="rounded=0;whiteSpace=wrap;html=1;" parent="1" vertex="1">
          <mxGeometry x="360" y="130" width="60" height="40" as="geometry" />
        </mxCell>
        <mxCell id="0mUN5aCMRDgJ7s6GESbr-10" value="" style="rounded=0;whiteSpace=wrap;html=1;" parent="1" vertex="1">
          <mxGeometry x="200" y="150" width="120" height="60" as="geometry" />
        </mxCell>
        <mxCell id="0mUN5aCMRDgJ7s6GESbr-11" value="mq&lt;br&gt;&lt;div&gt;thread&lt;/div&gt;" style="rounded=0;whiteSpace=wrap;html=1;" parent="1" vertex="1">
          <mxGeometry x="200" y="130" width="60" height="40" as="geometry" />
        </mxCell>
        <mxCell id="0mUN5aCMRDgJ7s6GESbr-12" value="" style="rounded=0;whiteSpace=wrap;html=1;align=left;" parent="1" vertex="1">
          <mxGeometry x="200" y="250" width="120" height="60" as="geometry" />
        </mxCell>
        <mxCell id="0mUN5aCMRDgJ7s6GESbr-13" value="tcp&lt;br&gt;&lt;div&gt;thread&lt;/div&gt;" style="rounded=0;whiteSpace=wrap;html=1;" parent="1" vertex="1">
          <mxGeometry x="200" y="230" width="60" height="40" as="geometry" />
        </mxCell>
        <mxCell id="0mUN5aCMRDgJ7s6GESbr-16" value="" style="group" parent="1" vertex="1" connectable="0">
          <mxGeometry x="210" y="178" width="70" height="12" as="geometry" />
        </mxCell>
        <mxCell id="0mUN5aCMRDgJ7s6GESbr-14" value="" style="ellipse;whiteSpace=wrap;html=1;aspect=fixed;" parent="0mUN5aCMRDgJ7s6GESbr-16" vertex="1">
          <mxGeometry y="2" width="10" height="10" as="geometry" />
        </mxCell>
        <mxCell id="0mUN5aCMRDgJ7s6GESbr-15" value="&lt;font style=&quot;font-size: 8px;&quot;&gt;g_ipc_ossif&lt;/font&gt;" style="text;html=1;align=left;verticalAlign=middle;whiteSpace=wrap;rounded=0;" parent="0mUN5aCMRDgJ7s6GESbr-16" vertex="1">
          <mxGeometry x="10" width="60" height="10" as="geometry" />
        </mxCell>
        <mxCell id="0mUN5aCMRDgJ7s6GESbr-18" value="MOSSIF" style="text;html=1;align=center;verticalAlign=middle;whiteSpace=wrap;rounded=0;" parent="1" vertex="1">
          <mxGeometry x="180" y="80" width="60" height="30" as="geometry" />
        </mxCell>
        <mxCell id="0mUN5aCMRDgJ7s6GESbr-20" value="" style="group" parent="1" vertex="1" connectable="0">
          <mxGeometry x="40" y="230" width="120" height="100" as="geometry" />
        </mxCell>
        <mxCell id="0mUN5aCMRDgJ7s6GESbr-5" value="MPROV" style="rounded=0;whiteSpace=wrap;html=1;" parent="0mUN5aCMRDgJ7s6GESbr-20" vertex="1">
          <mxGeometry width="60" height="18.18181818181818" as="geometry" />
        </mxCell>
        <mxCell id="0mUN5aCMRDgJ7s6GESbr-6" value="&lt;font style=&quot;font-size: 8px;&quot;&gt;127.0.0.1:12323&lt;/font&gt;" style="text;html=1;align=center;verticalAlign=middle;whiteSpace=wrap;rounded=0;" parent="0mUN5aCMRDgJ7s6GESbr-20" vertex="1">
          <mxGeometry y="18.18181818181818" width="60" height="9.09090909090909" as="geometry" />
        </mxCell>
        <mxCell id="0mUN5aCMRDgJ7s6GESbr-8" value="&lt;h1 style=&quot;margin-top: 0px;&quot;&gt;&lt;font style=&quot;font-size: 15px;&quot;&gt;tcpaddr&lt;/font&gt;&lt;/h1&gt;&lt;div&gt;&lt;br&gt;&lt;/div&gt;" style="text;html=1;whiteSpace=wrap;overflow=hidden;rounded=0;" parent="0mUN5aCMRDgJ7s6GESbr-20" vertex="1">
          <mxGeometry y="18.18181818181818" width="120" height="81.81818181818181" as="geometry" />
        </mxCell>
        <mxCell id="0mUN5aCMRDgJ7s6GESbr-21" value="" style="group" parent="1" vertex="1" connectable="0">
          <mxGeometry x="40" y="130" width="120" height="100" as="geometry" />
        </mxCell>
        <mxCell id="0mUN5aCMRDgJ7s6GESbr-3" value="MQ" style="rounded=0;whiteSpace=wrap;html=1;" parent="0mUN5aCMRDgJ7s6GESbr-21" vertex="1">
          <mxGeometry width="40" height="18.18181818181818" as="geometry" />
        </mxCell>
        <mxCell id="0mUN5aCMRDgJ7s6GESbr-7" value="&lt;font style=&quot;font-size: 8px;&quot;&gt;ICG_MQ1&amp;nbsp;&lt;/font&gt;&lt;span style=&quot;font-size: 8px; background-color: transparent; color: light-dark(rgb(0, 0, 0), rgb(255, 255, 255));&quot;&gt;9494&lt;/span&gt;" style="text;html=1;align=left;verticalAlign=middle;whiteSpace=wrap;rounded=0;" parent="0mUN5aCMRDgJ7s6GESbr-21" vertex="1">
          <mxGeometry y="18.18181818181818" width="60" height="9.09090909090909" as="geometry" />
        </mxCell>
        <mxCell id="0mUN5aCMRDgJ7s6GESbr-9" value="&lt;h1 style=&quot;margin-top: 0px;&quot;&gt;&lt;font style=&quot;font-size: 15px;&quot;&gt;mqaddr&lt;/font&gt;&lt;/h1&gt;&lt;div&gt;&lt;br&gt;&lt;/div&gt;" style="text;html=1;whiteSpace=wrap;overflow=hidden;rounded=0;" parent="0mUN5aCMRDgJ7s6GESbr-21" vertex="1">
          <mxGeometry y="18.18181818181818" width="120" height="81.81818181818181" as="geometry" />
        </mxCell>
        <mxCell id="kQ5Fjs25QCEKXcWTlB_y-3" value="" style="ellipse;whiteSpace=wrap;html=1;aspect=fixed;" vertex="1" parent="1">
          <mxGeometry x="210" y="282" width="10" height="10" as="geometry" />
        </mxCell>
        <mxCell id="kQ5Fjs25QCEKXcWTlB_y-4" value="&lt;font style=&quot;font-size: 8px;&quot;&gt;tcpsvr_thread&lt;/font&gt;" style="text;html=1;align=left;verticalAlign=middle;whiteSpace=wrap;rounded=0;" vertex="1" parent="1">
          <mxGeometry x="220" y="280" width="60" height="10" as="geometry" />
        </mxCell>
      </root>
    </mxGraphModel>
  </diagram>
</mxfile>
